<svg width="134" height="97" viewBox="0 0 134 97" fill="none" xmlns="http://www.w3.org/2000/svg">
<path fill-rule="evenodd" clip-rule="evenodd" d="M63.4952 0H70.7664L70.9557 5.30469H78.0376V11.6703H71.183L71.516 18.8772C71.6488 18.7402 71.7857 18.6058 71.9267 18.4746C78.5473 12.3144 88.3636 9.03623 95.6098 14.3227C102.881 19.6273 102.881 31.8281 92.8694 38.8846C87.1981 42.8818 82.1184 46.7353 82.3687 52.3712L92.5552 53.5773V61.5344H41.7064V53.5773L51.8929 52.3712C52.1432 46.7353 47.0634 42.8818 41.3922 38.8846C31.3806 31.8281 31.3806 19.6273 38.6518 14.3227C45.898 9.03623 55.7142 12.3144 62.3349 18.4746C62.4759 18.6058 62.6127 18.7402 62.7456 18.8772L63.0786 11.6703H56.2239V5.30469H63.3058L63.4952 0ZM56.6457 24.3731C61.0892 30.745 61.6773 38.1938 61.6773 41.433C59.4501 41.4365 51.0539 38.2028 46.6085 32.894C43.4081 29.072 42.5737 23.4016 45.3171 21.2002C48.0605 18.9988 53.8685 20.3906 56.6457 24.3731ZM77.6159 24.3731C73.1723 30.745 72.5842 38.1938 72.5842 41.433C74.8114 41.4365 83.2077 38.2028 87.653 32.894C90.8534 29.072 91.6879 23.4016 88.9445 21.2002C86.201 18.9988 80.3931 20.3906 77.6159 24.3731Z" fill="#F4F7FA"/>
<path d="M33.0117 73.8391V77.6398C32.8704 77.8267 32.6494 78.0318 32.3486 78.2551C32.0524 78.4738 31.6582 78.6629 31.166 78.8224C30.6738 78.982 30.0609 79.0617 29.3271 79.0617C28.7028 79.0617 28.1309 78.9569 27.6113 78.7473C27.0918 78.5331 26.6429 78.2209 26.2646 77.8107C25.891 77.4006 25.6016 76.9016 25.3965 76.3137C25.1914 75.7212 25.0889 75.0467 25.0889 74.2902V73.5998C25.0889 72.8478 25.1823 72.1779 25.3691 71.59C25.5605 70.9976 25.834 70.4963 26.1895 70.0861C26.5449 69.676 26.9733 69.3661 27.4746 69.1564C27.9805 68.9422 28.5524 68.8351 29.1904 68.8351C30.0062 68.8351 30.6807 68.9719 31.2139 69.2453C31.7516 69.5142 32.1663 69.8879 32.458 70.3664C32.7497 70.8449 32.9342 71.3918 33.0117 72.007H31.3301C31.2754 71.6607 31.1683 71.3508 31.0088 71.0773C30.8538 70.8039 30.6305 70.5897 30.3389 70.4348C30.0518 70.2752 29.6781 70.1955 29.2178 70.1955C28.8213 70.1955 28.4727 70.2707 28.1719 70.4211C27.8711 70.5715 27.6204 70.7925 27.4199 71.0842C27.224 71.3758 27.0758 71.7313 26.9756 72.1506C26.8753 72.5698 26.8252 73.0484 26.8252 73.5861V74.2902C26.8252 74.8371 26.8822 75.3224 26.9961 75.7463C27.1146 76.1701 27.2832 76.5279 27.502 76.8195C27.7253 77.1112 27.9964 77.3322 28.3154 77.4826C28.6344 77.6284 28.9945 77.7014 29.3955 77.7014C29.7874 77.7014 30.1087 77.6695 30.3594 77.6057C30.61 77.5373 30.8083 77.4575 30.9541 77.3664C31.1045 77.2707 31.2207 77.1795 31.3027 77.093V75.1174H29.2314V73.8391H33.0117ZM42.8486 73.675V74.2219C42.8486 74.9738 42.7507 75.6483 42.5547 76.2453C42.3587 76.8423 42.0785 77.3504 41.7139 77.7697C41.3538 78.189 40.9209 78.5103 40.415 78.7336C39.9092 78.9523 39.3486 79.0617 38.7334 79.0617C38.1227 79.0617 37.5645 78.9523 37.0586 78.7336C36.5573 78.5103 36.1221 78.189 35.7529 77.7697C35.3838 77.3504 35.0967 76.8423 34.8916 76.2453C34.6911 75.6483 34.5908 74.9738 34.5908 74.2219V73.675C34.5908 72.923 34.6911 72.2508 34.8916 71.6584C35.0921 71.0614 35.3747 70.5532 35.7393 70.134C36.1084 69.7101 36.5436 69.3889 37.0449 69.1701C37.5508 68.9468 38.109 68.8351 38.7197 68.8351C39.335 68.8351 39.8955 68.9468 40.4014 69.1701C40.9072 69.3889 41.3424 69.7101 41.707 70.134C42.0716 70.5532 42.3519 71.0614 42.5479 71.6584C42.7484 72.2508 42.8486 72.923 42.8486 73.675ZM41.1328 74.2219V73.6613C41.1328 73.1053 41.0781 72.6154 40.9688 72.1916C40.8639 71.7632 40.7067 71.4055 40.4971 71.1183C40.292 70.8267 40.0391 70.6079 39.7383 70.4621C39.4375 70.3117 39.098 70.2365 38.7197 70.2365C38.3415 70.2365 38.0042 70.3117 37.708 70.4621C37.4118 70.6079 37.1589 70.8267 36.9492 71.1183C36.7441 71.4055 36.5869 71.7632 36.4775 72.1916C36.3682 72.6154 36.3135 73.1053 36.3135 73.6613V74.2219C36.3135 74.7779 36.3682 75.27 36.4775 75.6984C36.5869 76.1268 36.7464 76.4891 36.9561 76.7853C37.1702 77.077 37.4255 77.298 37.7217 77.4484C38.0179 77.5943 38.3551 77.6672 38.7334 77.6672C39.1162 77.6672 39.4557 77.5943 39.752 77.4484C40.0482 77.298 40.2988 77.077 40.5039 76.7853C40.709 76.4891 40.8639 76.1268 40.9688 75.6984C41.0781 75.27 41.1328 74.7779 41.1328 74.2219ZM46.3965 68.9719V78.925H44.6807V68.9719H46.3965ZM51.4209 78.925H49.2949L49.3086 77.5646H51.4209C52.0361 77.5646 52.5511 77.4302 52.9658 77.1613C53.3851 76.8924 53.6995 76.5073 53.9092 76.006C54.1234 75.5047 54.2305 74.9077 54.2305 74.215V73.675C54.2305 73.1372 54.1689 72.661 54.0459 72.2463C53.9274 71.8316 53.7497 71.4829 53.5127 71.2004C53.2803 70.9178 52.9932 70.7036 52.6514 70.5578C52.3141 70.412 51.9245 70.3391 51.4824 70.3391H49.2539V68.9719H51.4824C52.1432 68.9719 52.7471 69.0835 53.2939 69.3068C53.8408 69.5256 54.3125 69.8423 54.709 70.257C55.11 70.6717 55.4176 71.1685 55.6318 71.7473C55.846 72.326 55.9531 72.9732 55.9531 73.6887V74.215C55.9531 74.9305 55.846 75.5777 55.6318 76.1564C55.4176 76.7352 55.11 77.232 54.709 77.6467C54.3079 78.0568 53.8294 78.3736 53.2734 78.5969C52.722 78.8156 52.1045 78.925 51.4209 78.925ZM50.2451 68.9719V78.925H48.5293V68.9719H50.2451ZM61.4014 70.298L58.4277 78.925H56.6299L60.376 68.9719H61.5244L61.4014 70.298ZM63.8896 78.925L60.9092 70.298L60.7793 68.9719H61.9346L65.6943 78.925H63.8896ZM63.7461 75.2336V76.5939H58.332V75.2336H63.7461ZM72.5781 75.6848H74.2871C74.2324 76.3364 74.0501 76.9175 73.7402 77.4279C73.4303 77.9338 72.9951 78.3325 72.4346 78.6242C71.874 78.9159 71.1927 79.0617 70.3906 79.0617C69.7754 79.0617 69.2217 78.9523 68.7295 78.7336C68.2373 78.5103 67.8158 78.1958 67.4648 77.7902C67.1139 77.3801 66.8451 76.8856 66.6582 76.3068C66.4759 75.728 66.3848 75.0809 66.3848 74.3654V73.5383C66.3848 72.8228 66.4782 72.1756 66.665 71.5969C66.8564 71.0181 67.1299 70.5236 67.4854 70.1135C67.8408 69.6988 68.2669 69.382 68.7637 69.1633C69.265 68.9445 69.8278 68.8351 70.4521 68.8351C71.2451 68.8351 71.915 68.981 72.4619 69.2726C73.0088 69.5643 73.4326 69.9676 73.7334 70.4826C74.0387 70.9976 74.2256 71.5877 74.2939 72.2531H72.585C72.5394 71.8247 72.4391 71.4579 72.2842 71.1525C72.1338 70.8472 71.9105 70.6148 71.6143 70.4553C71.318 70.2912 70.9307 70.2092 70.4521 70.2092C70.0602 70.2092 69.7184 70.2821 69.4268 70.4279C69.1351 70.5738 68.8913 70.7879 68.6953 71.0705C68.4993 71.353 68.3512 71.7017 68.251 72.1164C68.1553 72.5266 68.1074 72.996 68.1074 73.5246V74.3654C68.1074 74.8667 68.1507 75.3224 68.2373 75.7326C68.3285 76.1382 68.4652 76.4868 68.6475 76.7785C68.8343 77.0702 69.0713 77.2958 69.3584 77.4553C69.6455 77.6148 69.9896 77.6945 70.3906 77.6945C70.8783 77.6945 71.2725 77.617 71.5732 77.4621C71.8786 77.3071 72.1087 77.0816 72.2637 76.7853C72.4232 76.4846 72.528 76.1177 72.5781 75.6848ZM82.4219 73.1281V74.4885H77.1377V73.1281H82.4219ZM77.5615 68.9719V78.925H75.8457V68.9719H77.5615ZM83.7412 68.9719V78.925H82.0322V68.9719H83.7412ZM92.2998 77.5646V78.925H87.0156V77.5646H92.2998ZM87.501 68.9719V78.925H85.7852V68.9719H87.501ZM91.6094 73.1281V74.468H87.0156V73.1281H91.6094ZM92.2656 68.9719V70.3391H87.0156V68.9719H92.2656ZM98.9375 76.3615C98.9375 76.1564 98.9056 75.9741 98.8418 75.8146C98.7826 75.6551 98.6755 75.5093 98.5205 75.3771C98.3656 75.245 98.1468 75.1174 97.8643 74.9943C97.5863 74.8667 97.2308 74.7368 96.7979 74.6047C96.3239 74.4588 95.8864 74.2971 95.4854 74.1193C95.0889 73.937 94.7425 73.7274 94.4463 73.4904C94.1501 73.2489 93.9199 72.9732 93.7559 72.6633C93.5918 72.3488 93.5098 71.9865 93.5098 71.5764C93.5098 71.1708 93.5941 70.8016 93.7627 70.4689C93.9359 70.1363 94.1797 69.8491 94.4941 69.6076C94.8132 69.3615 95.1891 69.1724 95.6221 69.0402C96.055 68.9035 96.5335 68.8351 97.0576 68.8351C97.7959 68.8351 98.4316 68.9719 98.9648 69.2453C99.5026 69.5187 99.915 69.8856 100.202 70.3459C100.494 70.8062 100.64 71.3143 100.64 71.8703H98.9375C98.9375 71.5422 98.8669 71.2528 98.7256 71.0021C98.5889 70.7469 98.3792 70.5464 98.0967 70.4006C97.8187 70.2547 97.4655 70.1818 97.0371 70.1818C96.6315 70.1818 96.2943 70.2433 96.0254 70.3664C95.7565 70.4894 95.556 70.6558 95.4238 70.8654C95.2917 71.0751 95.2256 71.312 95.2256 71.5764C95.2256 71.7632 95.2689 71.9341 95.3555 72.0891C95.4421 72.2394 95.5742 72.3807 95.752 72.5129C95.9297 72.6405 96.153 72.7613 96.4219 72.8752C96.6908 72.9891 97.0075 73.0985 97.3721 73.2033C97.9235 73.3674 98.4043 73.5497 98.8145 73.7502C99.2246 73.9461 99.5664 74.1695 99.8398 74.4201C100.113 74.6708 100.318 74.9556 100.455 75.2746C100.592 75.5891 100.66 75.9468 100.66 76.3478C100.66 76.7671 100.576 77.1454 100.407 77.4826C100.239 77.8153 99.9971 78.1001 99.6826 78.3371C99.3727 78.5695 98.999 78.7495 98.5615 78.8771C98.1286 79.0002 97.6455 79.0617 97.1123 79.0617C96.6338 79.0617 96.1621 78.9979 95.6973 78.8703C95.237 78.7427 94.8177 78.549 94.4395 78.2892C94.0612 78.0249 93.7604 77.6968 93.5371 77.3049C93.3138 76.9084 93.2021 76.4458 93.2021 75.9172H94.918C94.918 76.2407 94.9727 76.5165 95.082 76.7443C95.196 76.9722 95.3532 77.159 95.5537 77.3049C95.7542 77.4461 95.9867 77.551 96.251 77.6193C96.5199 77.6877 96.807 77.7219 97.1123 77.7219C97.5133 77.7219 97.8483 77.6649 98.1172 77.551C98.3906 77.437 98.5957 77.2775 98.7324 77.0724C98.8691 76.8674 98.9375 76.6304 98.9375 76.3615ZM107.414 76.3615C107.414 76.1564 107.382 75.9741 107.318 75.8146C107.259 75.6551 107.152 75.5093 106.997 75.3771C106.842 75.245 106.623 75.1174 106.341 74.9943C106.063 74.8667 105.707 74.7368 105.274 74.6047C104.8 74.4588 104.363 74.2971 103.962 74.1193C103.565 73.937 103.219 73.7274 102.923 73.4904C102.627 73.2489 102.396 72.9732 102.232 72.6633C102.068 72.3488 101.986 71.9865 101.986 71.5764C101.986 71.1708 102.071 70.8016 102.239 70.4689C102.412 70.1363 102.656 69.8491 102.971 69.6076C103.29 69.3615 103.666 69.1724 104.099 69.0402C104.532 68.9035 105.01 68.8351 105.534 68.8351C106.272 68.8351 106.908 68.9719 107.441 69.2453C107.979 69.5187 108.392 69.8856 108.679 70.3459C108.97 70.8062 109.116 71.3143 109.116 71.8703H107.414C107.414 71.5422 107.343 71.2528 107.202 71.0021C107.065 70.7469 106.856 70.5464 106.573 70.4006C106.295 70.2547 105.942 70.1818 105.514 70.1818C105.108 70.1818 104.771 70.2433 104.502 70.3664C104.233 70.4894 104.033 70.6558 103.9 70.8654C103.768 71.0751 103.702 71.312 103.702 71.5764C103.702 71.7632 103.745 71.9341 103.832 72.0891C103.919 72.2394 104.051 72.3807 104.229 72.5129C104.406 72.6405 104.63 72.7613 104.898 72.8752C105.167 72.9891 105.484 73.0985 105.849 73.2033C106.4 73.3674 106.881 73.5497 107.291 73.7502C107.701 73.9461 108.043 74.1695 108.316 74.4201C108.59 74.6708 108.795 74.9556 108.932 75.2746C109.068 75.5891 109.137 75.9468 109.137 76.3478C109.137 76.7671 109.052 77.1454 108.884 77.4826C108.715 77.8153 108.474 78.1001 108.159 78.3371C107.849 78.5695 107.476 78.7495 107.038 78.8771C106.605 79.0002 106.122 79.0617 105.589 79.0617C105.11 79.0617 104.639 78.9979 104.174 78.8703C103.714 78.7427 103.294 78.549 102.916 78.2892C102.538 78.0249 102.237 77.6968 102.014 77.3049C101.79 76.9084 101.679 76.4458 101.679 75.9172H103.395C103.395 76.2407 103.449 76.5165 103.559 76.7443C103.673 76.9722 103.83 77.159 104.03 77.3049C104.231 77.4461 104.463 77.551 104.728 77.6193C104.996 77.6877 105.284 77.7219 105.589 77.7219C105.99 77.7219 106.325 77.6649 106.594 77.551C106.867 77.437 107.072 77.2775 107.209 77.0724C107.346 76.8674 107.414 76.6304 107.414 76.3615Z" fill="white"/>
</svg>
